<svg width="40" height="40" viewBox="0 0 40 40" fill="none" xmlns="http://www.w3.org/2000/svg">
<g clip-path="url(#clip0_259_1479)">
<path d="M29.261 27.5661L21.7273 20.0559L29.261 12.5222C29.6847 12.0514 29.6847 11.3215 29.2375 10.8977C29.002 10.6622 28.6961 10.5446 28.3665 10.5446C28.0604 10.5446 27.7779 10.6858 27.5661 10.8977L20.0559 18.4079L12.3103 10.6387C12.0748 10.4032 11.7689 10.2856 11.4393 10.2856C11.1331 10.2856 10.8507 10.4269 10.6388 10.6387C10.427 10.8742 10.2858 11.1802 10.3092 11.4863C10.3092 11.7924 10.4505 12.0748 10.6623 12.2867L18.4079 20.0558L10.6388 27.825C10.4033 28.0605 10.2857 28.3664 10.2857 28.696C10.2857 29.0021 10.4269 29.2846 10.6388 29.4964C10.8037 29.6377 11.0625 29.826 11.4629 29.826C11.8866 29.826 12.1455 29.6377 12.3104 29.4964L20.0796 21.7273L27.5897 29.2375C27.7546 29.4023 28.0134 29.567 28.4373 29.567C28.861 29.567 29.1199 29.3787 29.2848 29.2375C29.5203 29.002 29.6379 28.696 29.6379 28.3664C29.6144 28.0603 29.4967 27.7778 29.2613 27.566L29.261 27.5661Z" fill="#1D1D1D"/>
</g>
<defs>
<clipPath id="clip0_259_1479">
<rect width="20" height="20" fill="white" transform="translate(10 10)"/>
</clipPath>
</defs>
</svg>
