<svg width="15" height="15" viewBox="0 0 15 15" fill="none" xmlns="http://www.w3.org/2000/svg">
<path d="M0 14.3252L1.01248 10.6486C0.38652 9.56942 0.058149 8.34729 0.0615695 7.09792C0.0615695 3.183 3.26319 0 7.19337 0C9.10203 0 10.8944 0.738728 12.2387 2.08001C13.5863 3.4213 14.3286 5.20514 14.3252 7.10132C14.3252 11.0162 11.1236 14.1992 7.18995 14.1992H7.18653C5.99277 14.1992 4.81953 13.8997 3.77627 13.3345L0 14.3252ZM3.95755 12.0511L4.17305 12.1805C5.08291 12.7184 6.12617 13.0009 7.18995 13.0043H7.19337C10.46 13.0043 13.1212 10.3592 13.1212 7.10472C13.1212 5.52854 12.5055 4.04768 11.3869 2.93108C10.2684 1.81448 8.77708 1.20171 7.19337 1.20171C3.92677 1.19831 1.2656 3.84343 1.2656 7.09792C1.2656 8.21111 1.57686 9.29708 2.17204 10.2367L2.31228 10.4613L1.71369 12.6367L3.95755 12.0511Z" fill="#475FB7"/>
<path d="M0.24968 14.0766L1.22795 10.5259C0.622517 9.48762 0.304408 8.30634 0.304408 7.10122C0.307829 3.32247 3.39657 0.248413 7.19335 0.248413C9.03702 0.248413 10.7644 0.963311 12.0642 2.25694C13.364 3.55056 14.0789 5.27313 14.0789 7.10463C14.0789 10.8834 10.9867 13.9574 7.19335 13.9574H7.18993C6.03722 13.9574 4.90502 13.6681 3.89938 13.1234L0.24968 14.0766Z" fill="#475FB7"/>
<path d="M0 14.3252L1.01248 10.6486C0.38652 9.56942 0.058149 8.34729 0.0615695 7.09792C0.0615695 3.183 3.26319 0 7.19337 0C9.10203 0 10.8944 0.738728 12.2387 2.08001C13.5863 3.4213 14.3286 5.20514 14.3252 7.10132C14.3252 11.0162 11.1236 14.1992 7.18995 14.1992H7.18653C5.99277 14.1992 4.81953 13.8997 3.77627 13.3345L0 14.3252ZM3.95755 12.0511L4.17305 12.1805C5.08291 12.7184 6.12617 13.0009 7.18995 13.0043H7.19337C10.46 13.0043 13.1212 10.3592 13.1212 7.10472C13.1212 5.52854 12.5055 4.04768 11.3869 2.93108C10.2684 1.81448 8.77708 1.20171 7.19337 1.20171C3.92677 1.19831 1.2656 3.84343 1.2656 7.09792C1.2656 8.21111 1.57686 9.29708 2.17204 10.2367L2.31228 10.4613L1.71369 12.6367L3.95755 12.0511Z" fill="#475FB7"/>
<path fill-rule="evenodd" clip-rule="evenodd" d="M5.41115 4.12937C5.27775 3.8332 5.13751 3.82639 5.01095 3.82298C4.90833 3.81958 4.78862 3.81958 4.6689 3.81958C4.54918 3.81958 4.35763 3.86384 4.19344 4.04086C4.02926 4.21788 3.57091 4.64682 3.57091 5.52172C3.57091 6.39321 4.21055 7.23747 4.29948 7.35662C4.38841 7.47577 5.53429 9.32429 7.34375 10.0358C8.84878 10.6281 9.15663 10.509 9.48158 10.4783C9.80653 10.4477 10.5351 10.0494 10.6856 9.63408C10.8327 9.21876 10.8327 8.86472 10.7882 8.78982C10.7438 8.71493 10.624 8.67067 10.4462 8.58216C10.2683 8.49365 9.39265 8.06471 9.22846 8.00344C9.06428 7.94556 8.94456 7.91492 8.82826 8.09195C8.70854 8.26897 8.36649 8.66727 8.26387 8.78642C8.16126 8.90557 8.05522 8.91919 7.87735 8.83067C7.69949 8.74216 7.12484 8.55493 6.44415 7.94897C5.91397 7.47918 5.55481 6.89705 5.4522 6.72002C5.34958 6.543 5.44194 6.44768 5.53087 6.35917C5.60954 6.28087 5.70874 6.15151 5.79767 6.04938C5.88661 5.94725 5.91739 5.87236 5.97554 5.75321C6.03369 5.63406 6.00632 5.53193 5.96186 5.44342C5.91739 5.35831 5.5685 4.48001 5.41115 4.12937Z" fill="white"/>
</svg>
