<svg width="140" height="50" viewBox="0 0 140 50" fill="none" xmlns="http://www.w3.org/2000/svg">
<path d="M27.8136 35.8312C27.5139 36.1401 27.1334 36.2945 26.6719 36.2945C26.2097 36.2945 25.8291 36.1401 25.5303 35.8312C25.2307 35.5229 25.0815 35.1345 25.0815 34.6666C25.0815 34.1995 25.2307 33.8108 25.5303 33.5019C25.8291 33.1936 26.2119 33.0392 26.6785 33.0392C27.1355 33.0392 27.5139 33.1936 27.8136 33.5019C28.1126 33.8108 28.2624 34.1995 28.2624 34.6666C28.2624 35.1345 28.1126 35.5229 27.8136 35.8312ZM28.5264 31.6361C27.9011 31.1244 27.1757 30.8689 26.3486 30.8689C25.2573 30.8689 24.3598 31.224 23.6557 31.9341C22.9517 32.6441 22.6001 33.551 22.6001 34.6531C22.6001 35.3856 22.7604 36.0429 23.0815 36.6251C23.4029 37.2075 23.8472 37.662 24.4147 37.9881C24.9822 38.3149 25.6267 38.4783 26.3486 38.4783C27.1666 38.4783 27.884 38.2266 28.4997 37.7236L28.7111 38.2266H30.5983V31.0808H28.7771L28.5264 31.6361Z" fill="white"/>
<path d="M35.5609 35.0237L34.0558 31.0933H31.3898L34.3334 37.6442C34.1656 38.1033 33.9809 38.4078 33.7791 38.5578C33.576 38.7071 33.2422 38.7828 32.7756 38.7828H32.1028V40.8997H32.9476C33.8534 40.8997 34.5707 40.6811 35.0988 40.2445C35.6263 39.8078 36.1367 39.0339 36.6299 37.9221L39.6127 31.0933H36.9727L35.5609 35.0237Z" fill="white"/>
<path d="M47.2417 31.0932H44.4962L42.7937 33.8993V31.0932H40.3391V38.2397H42.7937V35.2095L44.5756 38.2397H47.4664L45.011 34.5075L47.2417 31.0932Z" fill="white"/>
<path d="M54.7515 31.0934H52.3226V36.1089H50.5408V31.0934H48.1121V38.2399H53.5628V39.9072H55.675V36.1089H54.7515V31.0934Z" fill="white"/>
<path d="M59.2517 34.2699V31.0932H56.8892V38.2397H58.3277L61.1917 35.0371V38.2397H63.5542V31.0932H62.1421L59.2517 34.2699Z" fill="white"/>
<path d="M69.7908 35.8178C69.505 36.1179 69.1378 36.2679 68.6893 36.2679C68.2402 36.2679 67.871 36.1179 67.5804 35.8178C67.2904 35.5185 67.1446 35.1345 67.1446 34.6666C67.1446 34.3583 67.2106 34.082 67.3427 33.8398C67.4747 33.5969 67.6575 33.4078 67.8905 33.2702C68.124 33.1336 68.3892 33.0653 68.6893 33.0653C69.1378 33.0653 69.505 33.2152 69.7908 33.5154C70.0772 33.8154 70.2203 34.1995 70.2203 34.6666C70.2203 35.1345 70.0772 35.5185 69.7908 35.8178ZM68.6893 30.8557C67.5276 30.8557 66.5708 31.2129 65.8185 31.9274C65.0662 32.6418 64.6901 33.5554 64.6901 34.6666C64.6901 35.7696 65.0662 36.6809 65.8185 37.3998C66.5708 38.1188 67.5276 38.4783 68.6893 38.4783C69.8421 38.4783 70.7967 38.1188 71.5532 37.3998C72.3098 36.6809 72.688 35.7696 72.688 34.6666C72.688 33.5636 72.3119 32.6529 71.5601 31.9341C70.8078 31.2152 69.851 30.8557 68.6893 30.8557Z" fill="white"/>
<path d="M78.2177 33.5553H76.2645V31.0932H73.8232V38.2397H76.2645V35.7257H78.2177V38.2397H80.6595V31.0932H78.2177V33.5553Z" fill="white"/>
<path d="M86.6118 33.5553H84.6587V31.0932H82.2174V38.2397H84.6587V35.7257H86.6118V38.2397H89.0536V31.0932H86.6118V33.5553Z" fill="white"/>
<path d="M97.7914 38.2397H100.233V31.0932H97.7914V38.2397Z" fill="white"/>
<path d="M94.32 36.1623C94.1699 36.3035 93.9681 36.3742 93.7129 36.3742H92.8814V34.7986H93.7129C93.9681 34.7986 94.1699 34.8678 94.32 35.0044C94.47 35.1411 94.5445 35.3328 94.5445 35.5801C94.5445 35.8267 94.47 36.0211 94.32 36.1623ZM93.9898 32.9196H92.8814V31.0932H90.6118V38.2397H93.9898C94.8525 38.2397 95.5409 37.9948 96.056 37.5052C96.5705 37.0157 96.8278 36.3742 96.8278 35.5801C96.8278 34.7861 96.5705 34.1436 96.056 33.6541C95.5409 33.1646 94.8525 32.9196 93.9898 32.9196Z" fill="white"/>
<path d="M117.457 36.0698H115.516C115.815 35.5758 116.022 34.605 116.136 33.1582H117.457V36.0698ZM119.74 31.0934H114.065C113.897 32.8759 113.757 34.0909 113.642 34.7394C113.527 35.3879 113.356 35.8313 113.127 36.0698H112.335V39.9072H114.434V38.2399H118.526V39.9072H120.638V36.0698H119.74V31.0934Z" fill="#FD99B3"/>
<path d="M126.425 35.8178C126.139 36.1179 125.772 36.2679 125.323 36.2679C124.875 36.2679 124.504 36.1179 124.214 35.8178C123.924 35.5185 123.779 35.1345 123.779 34.6666C123.779 34.3583 123.845 34.082 123.977 33.8398C124.109 33.5969 124.291 33.4078 124.524 33.2702C124.757 33.1336 125.024 33.0653 125.323 33.0653C125.772 33.0653 126.139 33.2152 126.425 33.5154C126.712 33.8154 126.855 34.1995 126.855 34.6666C126.855 35.1345 126.712 35.5185 126.425 35.8178ZM125.323 30.8557C124.162 30.8557 123.205 31.2129 122.452 31.9274C121.7 32.6418 121.323 33.5554 121.323 34.6666C121.323 35.7696 121.7 36.6809 122.452 37.3998C123.205 38.1188 124.162 38.4783 125.323 38.4783C126.475 38.4783 127.43 38.1188 128.188 37.3998C128.944 36.6809 129.322 35.7696 129.322 34.6666C129.322 33.5636 128.946 32.6529 128.194 31.9341C127.441 31.2152 126.484 30.8557 125.323 30.8557Z" fill="#FD99B3"/>
<path d="M138.865 31.0932H136.779L134.971 34.7066L133.19 31.0932H131.025L129.929 38.2398H132.239L132.766 34.587L134.655 38.2666H135.275L137.162 34.6004L137.676 38.2398H140L138.865 31.0932Z" fill="#FD99B3"/>
<path d="M41.8299 22.6772C41.6275 22.8265 41.2929 22.9022 40.827 22.9022H40.1536V25.019H40.9985C41.9048 25.019 42.6222 24.8007 43.1497 24.3638C43.6778 23.9272 44.1881 23.1532 44.6807 22.0414L47.6635 15.2127H45.0241L43.6117 19.1434L42.1073 15.2127H39.4414L42.384 21.7635C42.2171 22.2227 42.0324 22.5272 41.8299 22.6772Z" fill="white"/>
<path d="M49.5379 22.1075C50.1366 22.4343 50.8139 22.5977 51.5704 22.5977C52.5734 22.5977 53.4228 22.2977 54.1175 21.6975C54.8128 21.0974 55.2312 20.3124 55.3712 19.3424H52.9563C52.8597 19.6595 52.6862 19.9134 52.4353 20.1029C52.184 20.2931 51.896 20.3873 51.5704 20.3873C51.1395 20.3873 50.785 20.2373 50.5082 19.9372C50.2309 19.6379 50.092 19.2538 50.092 18.7859C50.092 18.3188 50.2309 17.9371 50.5082 17.6414C50.785 17.3457 51.1395 17.198 51.5704 17.198C51.8872 17.198 52.1713 17.2842 52.4221 17.4564C52.6728 17.628 52.8507 17.8597 52.9563 18.1508H55.3453C55.2571 17.5248 55.0421 16.973 54.6987 16.4969C54.3553 16.02 53.9131 15.6493 53.3721 15.3851C52.8306 15.1206 52.2306 14.9883 51.5704 14.9883C50.8139 14.9883 50.1366 15.1487 49.5379 15.4711C48.9392 15.7934 48.4712 16.2429 48.1321 16.8207C47.7932 17.3986 47.624 18.0515 47.624 18.7792C47.624 19.5072 47.7932 20.1622 48.1321 20.7444C48.4712 21.3269 48.9392 21.7813 49.5379 22.1075Z" fill="white"/>
<path d="M60.8292 20.1029C60.5782 20.2931 60.2898 20.3873 59.9649 20.3873C59.5332 20.3873 59.1793 20.2373 58.9019 19.9372C58.6251 19.6379 58.4861 19.2538 58.4861 18.7859C58.4861 18.3188 58.6251 17.9371 58.9019 17.6414C59.1793 17.3457 59.5332 17.198 59.9649 17.198C60.2813 17.198 60.565 17.2842 60.8154 17.4564C61.0664 17.628 61.2449 17.8597 61.3506 18.1508H63.739C63.6513 17.5248 63.4358 16.973 63.0924 16.4969C62.7495 16.02 62.3073 15.6493 61.7658 15.3851C61.2248 15.1206 60.6242 14.9883 59.9649 14.9883C59.2073 14.9883 58.53 15.1487 57.9319 15.4711C57.3334 15.7934 56.8648 16.2429 56.5267 16.8207C56.1875 17.3986 56.0184 18.0515 56.0184 18.7792C56.0184 19.5072 56.1875 20.1622 56.5267 20.7444C56.8648 21.3269 57.3334 21.7813 57.9319 22.1075C58.53 22.4343 59.2073 22.5977 59.9649 22.5977C60.9676 22.5977 61.816 22.2977 62.5123 21.6975C63.207 21.0974 63.6249 20.3124 63.766 19.3424H61.3506C61.2534 19.6595 61.0796 19.9134 60.8292 20.1029Z" fill="white"/>
<path d="M67.2893 19.3292L69.0713 22.3594H71.9622L69.5071 18.6271L71.7382 15.2129H68.9926L67.2893 18.0189V15.2129H64.8348V22.3594H67.2893V19.3292Z" fill="white"/>
<path d="M76.9114 19.1568V22.3594H79.2739V15.2129H77.8618L74.9715 18.3896V15.2129H72.6089V22.3594H74.0475L76.9114 19.1568Z" fill="white"/>
<path d="M86.1898 12.6324H82.4019V14.2205H86.1898V12.6324Z" fill="white"/>
<path d="M85.1343 19.1568V22.3594H87.4968V15.2129H86.0842L83.1938 18.3896V15.2129H80.8318V22.3594H82.2698L85.1343 19.1568Z" fill="white"/>
<path d="M107.149 28.5147H103.361V30.1028H107.149V28.5147Z" fill="white"/>
<path d="M106.093 35.0388V38.2415H108.456V31.095H107.043L104.153 34.2716V31.095H101.791V38.2415H103.229L106.093 35.0388Z" fill="white"/>
<path d="M23.4407 24.381L28.7184 7.6664C38.6574 3.66845 40.1018 4.60741 40.2149 4.70369C40.3024 4.90208 41.0309 7.71151 23.4407 24.381ZM40.6576 4.42159L40.2108 4.69509C40.2108 4.69509 40.2108 4.69509 40.2108 4.69531C40.2108 4.69509 40.2106 4.69488 40.2106 4.69466L40.6576 4.42159ZM42.7877 3.11306C41.409 0.862614 37.5301 1.1053 29.8922 3.9499C30.2708 2.63321 30.6495 1.31669 31.0282 0C30.0086 0.000431061 28.9887 0.00101852 27.9688 0.00144958L26.271 5.378C19.8493 8.03409 11.1688 12.218 0.464327 17.8175L0 18.0602C0.00185731 19.1575 0.00371462 20.2551 0.00557195 21.3524C0.625293 21.0684 1.24481 20.7842 1.86433 20.5C11.0846 15.6774 18.8816 11.8787 25.0648 9.19684C20.7414 22.7534 16.4182 36.3098 12.0948 49.8664C13.1801 49.9109 14.2654 49.9555 15.3509 50L21.5848 30.2569C42.8292 10.665 44.3315 5.63197 42.7877 3.11306Z" fill="white"/>
</svg>
