<svg width="7" height="8" viewBox="0 0 7 8" fill="none" xmlns="http://www.w3.org/2000/svg">
<path d="M4.1 1C4.1 0.668629 3.83137 0.4 3.5 0.4C3.16863 0.4 2.9 0.668629 2.9 1H4.1ZM2.9 7C2.9 7.33137 3.16863 7.6 3.5 7.6C3.83137 7.6 4.1 7.33137 4.1 7H2.9ZM0.691303 4.9855C0.407154 5.15599 0.315015 5.52455 0.485504 5.8087C0.655993 6.09285 1.02455 6.18498 1.3087 6.0145L0.691303 4.9855ZM6.3087 3.0145C6.59285 2.84401 6.68498 2.47545 6.5145 2.1913C6.34401 1.90715 5.97545 1.81502 5.6913 1.9855L6.3087 3.0145ZM1.3087 1.9855C1.02455 1.81502 0.655993 1.90715 0.485504 2.1913C0.315015 2.47545 0.407154 2.84401 0.691303 3.0145L1.3087 1.9855ZM5.6913 6.0145C5.97545 6.18498 6.34401 6.09285 6.5145 5.8087C6.68498 5.52455 6.59285 5.15599 6.3087 4.9855L5.6913 6.0145ZM2.9 1V4H4.1V1H2.9ZM2.9 4V7H4.1V4H2.9ZM3.1913 3.4855L0.691303 4.9855L1.3087 6.0145L3.8087 4.5145L3.1913 3.4855ZM3.8087 4.5145L6.3087 3.0145L5.6913 1.9855L3.1913 3.4855L3.8087 4.5145ZM3.8087 3.4855L1.3087 1.9855L0.691303 3.0145L3.1913 4.5145L3.8087 3.4855ZM0.691303 3.0145L5.6913 6.0145L6.3087 4.9855L1.3087 1.9855L0.691303 3.0145Z" fill="#FF2E2E"/>
</svg>
