<svg width="28" height="28" viewBox="0 0 28 28" fill="none" xmlns="http://www.w3.org/2000/svg">
<rect width="28" height="28" rx="14" fill="white"/>
<path fill-rule="evenodd" clip-rule="evenodd" d="M7.89588 13.6493C11.3941 12.1252 13.7268 11.1204 14.894 10.6349C18.2265 9.24882 18.919 9.00804 19.3704 9.00008C19.4696 8.99834 19.6916 9.02294 19.8354 9.1396C19.9568 9.23811 19.9902 9.37118 20.0061 9.46458C20.0221 9.55797 20.042 9.77073 20.0262 9.93698C19.8456 11.8345 19.0642 16.4391 18.6667 18.5644C18.4985 19.4636 18.1672 19.7651 17.8466 19.7946C17.1497 19.8588 16.6206 19.3341 15.9456 18.8917C14.8894 18.1993 14.2928 17.7684 13.2676 17.0928C12.0828 16.312 12.8509 15.8829 13.5261 15.1816C13.7028 14.9981 16.7732 12.2054 16.8326 11.952C16.84 11.9203 16.8469 11.8022 16.7768 11.7398C16.7066 11.6775 16.603 11.6988 16.5283 11.7158C16.4224 11.7398 14.7352 12.855 11.4666 15.0613C10.9877 15.3902 10.5539 15.5504 10.1653 15.542C9.73682 15.5328 8.91263 15.2998 8.29993 15.1006C7.54843 14.8563 6.95115 14.7272 7.00316 14.3123C7.03025 14.0962 7.32782 13.8752 7.89588 13.6493Z" fill="#475FB7"/>
</svg>
