<svg width="28" height="28" viewBox="0 0 28 28" fill="none" xmlns="http://www.w3.org/2000/svg">
<g id="WhatsApp-icon">
<rect width="28" height="28" rx="14" fill="white"/>
<g id="Group">
<path id="Vector" d="M7 21.3252L8.01248 17.6486C7.38652 16.5694 7.05815 15.3473 7.06157 14.0979C7.06157 10.183 10.2632 7 14.1934 7C16.102 7 17.8944 7.73873 19.2387 9.08001C20.5863 10.4213 21.3286 12.2051 21.3252 14.1013C21.3252 18.0162 18.1236 21.1992 14.19 21.1992H14.1865C12.9928 21.1992 11.8195 20.8997 10.7763 20.3345L7 21.3252ZM10.9576 19.0511L11.173 19.1805C12.0829 19.7184 13.1262 20.0009 14.19 20.0043H14.1934C17.46 20.0043 20.1212 17.3592 20.1212 14.1047C20.1212 12.5285 19.5055 11.0477 18.3869 9.93108C17.2684 8.81448 15.7771 8.20171 14.1934 8.20171C10.9268 8.19831 8.2656 10.8434 8.2656 14.0979C8.2656 15.2111 8.57686 16.2971 9.17204 17.2367L9.31228 17.4613L8.71369 19.6367L10.9576 19.0511Z" fill="#475FB7"/>
<path id="Vector_2" d="M7.24963 21.0765L8.22791 17.5258C7.62247 16.4875 7.30436 15.3062 7.30436 14.1011C7.30778 10.3224 10.3965 7.24829 14.1933 7.24829C16.037 7.24829 17.7643 7.96319 19.0641 9.25681C20.3639 10.5504 21.0788 12.273 21.0788 14.1045C21.0788 17.8833 17.9867 20.9573 14.1933 20.9573H14.1899C13.0372 20.9573 11.905 20.6679 10.8993 20.1233L7.24963 21.0765Z" fill="#475FB7"/>
<path id="Vector_3" d="M7 21.3252L8.01248 17.6486C7.38652 16.5694 7.05815 15.3473 7.06157 14.0979C7.06157 10.183 10.2632 7 14.1934 7C16.102 7 17.8944 7.73873 19.2387 9.08001C20.5863 10.4213 21.3286 12.2051 21.3252 14.1013C21.3252 18.0162 18.1236 21.1992 14.19 21.1992H14.1865C12.9928 21.1992 11.8195 20.8997 10.7763 20.3345L7 21.3252ZM10.9576 19.0511L11.173 19.1805C12.0829 19.7184 13.1262 20.0009 14.19 20.0043H14.1934C17.46 20.0043 20.1212 17.3592 20.1212 14.1047C20.1212 12.5285 19.5055 11.0477 18.3869 9.93108C17.2684 8.81448 15.7771 8.20171 14.1934 8.20171C10.9268 8.19831 8.2656 10.8434 8.2656 14.0979C8.2656 15.2111 8.57686 16.2971 9.17204 17.2367L9.31228 17.4613L8.71369 19.6367L10.9576 19.0511Z" fill="#475FB7"/>
<path id="Vector_4" fill-rule="evenodd" clip-rule="evenodd" d="M12.4112 11.1294C12.2778 10.8332 12.1375 10.8264 12.011 10.823C11.9083 10.8196 11.7886 10.8196 11.6689 10.8196C11.5492 10.8196 11.3576 10.8638 11.1935 11.0409C11.0293 11.2179 10.5709 11.6468 10.5709 12.5217C10.5709 13.3932 11.2106 14.2375 11.2995 14.3566C11.3884 14.4758 12.5343 16.3243 14.3438 17.0358C15.8488 17.6281 16.1566 17.509 16.4816 17.4783C16.8065 17.4477 17.5351 17.0494 17.6856 16.6341C17.8327 16.2188 17.8327 15.8647 17.7882 15.7898C17.7438 15.7149 17.6241 15.6707 17.4462 15.5822C17.2683 15.4937 16.3927 15.0647 16.2285 15.0034C16.0643 14.9456 15.9446 14.9149 15.8283 15.0919C15.7086 15.269 15.3665 15.6673 15.2639 15.7864C15.1613 15.9056 15.0552 15.9192 14.8774 15.8307C14.6995 15.7422 14.1249 15.5549 13.4442 14.949C12.914 14.4792 12.5548 13.897 12.4522 13.72C12.3496 13.543 12.442 13.4477 12.5309 13.3592C12.6096 13.2809 12.7088 13.1515 12.7977 13.0494C12.8866 12.9473 12.9174 12.8724 12.9756 12.7532C13.0337 12.6341 13.0063 12.5319 12.9619 12.4434C12.9174 12.3583 12.5685 11.48 12.4112 11.1294Z" fill="white"/>
</g>
</g>
</svg>
