<svg width="200" height="70" viewBox="0 0 200 70" fill="none" xmlns="http://www.w3.org/2000/svg">
<path d="M39.7337 50.1637C39.3057 50.5963 38.762 50.8124 38.1028 50.8124C37.4424 50.8124 36.8988 50.5963 36.4719 50.1637C36.0439 49.7321 35.8307 49.1883 35.8307 48.5332C35.8307 47.8794 36.0439 47.3352 36.4719 46.9028C36.8988 46.4711 37.4457 46.255 38.1122 46.255C38.765 46.255 39.3057 46.4711 39.7337 46.9028C40.1609 47.3352 40.3749 47.8794 40.3749 48.5332C40.3749 49.1883 40.1609 49.7321 39.7337 50.1637ZM40.752 44.2906C39.8587 43.5741 38.8224 43.2165 37.6408 43.2165C36.0819 43.2165 34.7998 43.7137 33.7939 44.7078C32.7882 45.7018 32.2859 46.9715 32.2859 48.5145C32.2859 49.5398 32.5149 50.46 32.9737 51.2752C33.4327 52.0905 34.0675 52.7268 34.8782 53.1834C35.6889 53.6409 36.6096 53.8696 37.6408 53.8696C38.8095 53.8696 39.8343 53.5173 40.714 52.8131L41.0159 53.5173H43.7119V43.5131H41.1102L40.752 44.2906Z" fill="#163190"/>
<path d="M50.8015 49.0332L48.6515 43.5306H44.8428L49.048 52.7018C48.8083 53.3446 48.5444 53.7709 48.2561 53.9809C47.966 54.1899 47.489 54.2959 46.8225 54.2959H45.8613V57.2595H47.0683C48.3622 57.2595 49.387 56.9535 50.1414 56.3422C50.8949 55.7309 51.6241 54.6474 52.3287 53.0909L56.5899 43.5306H52.8183L50.8015 49.0332Z" fill="#163190"/>
<path d="M67.488 43.5305H63.5658L61.1337 47.459V43.5305H57.6272V53.5356H61.1337V49.2933L63.6793 53.5356H67.8091L64.3014 48.3105L67.488 43.5305Z" fill="#163190"/>
<path d="M78.2166 43.5307H74.7468V50.5525H72.2014V43.5307H68.7317V53.5358H76.5185V55.8701H79.5358V50.5525H78.2166V43.5307Z" fill="#163190"/>
<path d="M84.6454 47.9778V43.5305H81.2703V53.5356H83.3254L87.4167 49.0519V53.5356H90.7918V43.5305H88.7744L84.6454 47.9778Z" fill="#163190"/>
<path d="M99.7011 50.1449C99.2928 50.5651 98.7683 50.7751 98.1275 50.7751C97.486 50.7751 96.9585 50.5651 96.5434 50.1449C96.129 49.726 95.9207 49.1883 95.9207 48.5332C95.9207 48.1016 96.0151 47.7149 96.2037 47.3758C96.3924 47.0357 96.6535 46.7709 96.9864 46.5783C97.32 46.3871 97.6988 46.2914 98.1275 46.2914C98.7683 46.2914 99.2928 46.5014 99.7011 46.9216C100.11 47.3417 100.315 47.8794 100.315 48.5332C100.315 49.1883 100.11 49.726 99.7011 50.1449ZM98.1275 43.198C96.4679 43.198 95.1011 43.6981 94.0264 44.6984C92.9517 45.6986 92.4143 46.9776 92.4143 48.5332C92.4143 50.0774 92.9517 51.3533 94.0264 52.3598C95.1011 53.3664 96.4679 53.8696 98.1275 53.8696C99.7743 53.8696 101.138 53.3664 102.219 52.3598C103.3 51.3533 103.84 50.0774 103.84 48.5332C103.84 46.9891 103.303 45.7141 102.229 44.7078C101.154 43.7013 99.7871 43.198 98.1275 43.198Z" fill="#163190"/>
<path d="M111.74 46.9775H108.949V43.5305H105.462V53.5356H108.949V50.0159H111.74V53.5356H115.228V43.5305H111.74V46.9775Z" fill="#163190"/>
<path d="M123.731 46.9775H120.941V43.5305H117.454V53.5356H120.941V50.0159H123.731V53.5356H127.22V43.5305H123.731V46.9775Z" fill="#163190"/>
<path d="M139.702 53.5356H143.189V43.5305H139.702V53.5356Z" fill="#163190"/>
<path d="M134.743 50.6272C134.528 50.8248 134.24 50.9238 133.875 50.9238H132.688V48.7181H133.875C134.24 48.7181 134.528 48.815 134.743 49.0061C134.957 49.1976 135.063 49.4659 135.063 49.8122C135.063 50.1574 134.957 50.4296 134.743 50.6272ZM134.271 46.0875H132.688V43.5305H129.445V53.5356H134.271C135.503 53.5356 136.487 53.1927 137.223 52.5073C137.958 51.822 138.325 50.9238 138.325 49.8122C138.325 48.7005 137.958 47.8011 137.223 47.1157C136.487 46.4304 135.503 46.0875 134.271 46.0875Z" fill="#163190"/>
<path d="M167.795 50.4977H165.023C165.45 49.8062 165.746 48.447 165.909 46.4215H167.795V50.4977ZM171.057 43.5307H162.949C162.709 46.0262 162.509 47.7272 162.346 48.6351C162.182 49.5431 161.937 50.1638 161.611 50.4977H160.479V55.8701H163.477V53.5358H169.322V55.8701H172.34V50.4977H171.057V43.5307Z" fill="#FD99B3"/>
<path d="M180.608 50.1449C180.199 50.5651 179.675 50.7751 179.033 50.7751C178.393 50.7751 177.863 50.5651 177.449 50.1449C177.035 49.726 176.827 49.1883 176.827 48.5332C176.827 48.1016 176.922 47.7149 177.11 47.3758C177.299 47.0357 177.559 46.7709 177.892 46.5783C178.225 46.3871 178.605 46.2914 179.033 46.2914C179.675 46.2914 180.199 46.5014 180.608 46.9216C181.017 47.3417 181.221 47.8794 181.221 48.5332C181.221 49.1883 181.017 49.726 180.608 50.1449ZM179.033 43.198C177.374 43.198 176.007 43.6981 174.932 44.6984C173.857 45.6986 173.319 46.9776 173.319 48.5332C173.319 50.0774 173.857 51.3533 174.932 52.3598C176.007 53.3664 177.374 53.8696 179.033 53.8696C180.679 53.8696 182.043 53.3664 183.125 52.3598C184.206 51.3533 184.747 50.0774 184.747 48.5332C184.747 46.9891 184.209 45.7141 183.134 44.7078C182.059 43.7013 180.692 43.198 179.033 43.198Z" fill="#FD99B3"/>
<path d="M198.379 43.5305H195.398L192.816 48.5892L190.271 43.5305H187.179L185.614 53.5357H188.913L189.666 48.4218L192.364 53.5732H193.25L195.946 48.4406L196.681 53.5357H200L198.379 43.5305Z" fill="#FD99B3"/>
<path d="M59.7571 31.7482C59.4679 31.9573 58.99 32.0633 58.3244 32.0633H57.3624V35.0269H58.5693C59.8641 35.0269 60.8889 34.7212 61.6425 34.1096C62.3969 33.4982 63.126 32.4147 63.8296 30.8582L68.0909 21.298H64.3202L62.3026 26.8009L60.1533 21.298H56.345L60.5487 30.4691C60.3102 31.1119 60.0463 31.5383 59.7571 31.7482Z" fill="#163190"/>
<path d="M70.7685 30.9507C71.6238 31.4082 72.5913 31.637 73.6721 31.637C75.1049 31.637 76.3184 31.2171 77.3109 30.3767C78.3041 29.5366 78.9018 28.4376 79.1018 27.0796H75.652C75.5139 27.5235 75.2661 27.8791 74.9076 28.1442C74.5486 28.4106 74.1373 28.5424 73.6721 28.5424C73.0565 28.5424 72.5501 28.3325 72.1547 27.9123C71.7585 27.4933 71.5601 26.9556 71.5601 26.3005C71.5601 25.6466 71.7585 25.1122 72.1547 24.6982C72.5501 24.2842 73.0565 24.0775 73.6721 24.0775C74.1246 24.0775 74.5306 24.1982 74.8888 24.4393C75.247 24.6794 75.5011 25.0038 75.652 25.4114H79.0648C78.9388 24.5349 78.6316 23.7624 78.1411 23.0959C77.6505 22.4282 77.0188 21.9093 76.246 21.5394C75.4724 21.1691 74.6152 20.9838 73.6721 20.9838C72.5913 20.9838 71.6238 21.2084 70.7685 21.6597C69.9133 22.1111 69.2446 22.7403 68.7602 23.5493C68.2762 24.3582 68.0344 25.2723 68.0344 26.2911C68.0344 27.3103 68.2762 28.2273 68.7602 29.0424C69.2446 29.8579 69.9133 30.4941 70.7685 30.9507Z" fill="#163190"/>
<path d="M86.8988 28.1442C86.5403 28.4106 86.1283 28.5424 85.6641 28.5424C85.0475 28.5424 84.5418 28.3325 84.1456 27.9123C83.7501 27.4933 83.5517 26.9556 83.5517 26.3005C83.5517 25.6466 83.7501 25.1122 84.1456 24.6982C84.5418 24.2842 85.0475 24.0775 85.6641 24.0775C86.1162 24.0775 86.5215 24.1982 86.8792 24.4393C87.2377 24.6794 87.4928 25.0038 87.6437 25.4114H91.0558C90.9305 24.5349 90.6226 23.7624 90.132 23.0959C89.6422 22.4282 89.0105 21.9093 88.2369 21.5394C87.4641 21.1691 86.606 20.9838 85.6641 20.9838C84.5818 20.9838 83.6143 21.2084 82.76 21.6597C81.9049 22.1111 81.2354 22.7403 80.7524 23.5493C80.2679 24.3582 80.0264 25.2723 80.0264 26.2911C80.0264 27.3103 80.2679 28.2273 80.7524 29.0424C81.2354 29.8579 81.9049 30.4941 82.76 30.9507C83.6143 31.4082 84.5818 31.637 85.6641 31.637C87.0966 31.637 88.3086 31.2171 89.3034 30.3767C90.2958 29.5366 90.8928 28.4376 91.0943 27.0796H87.6437C87.5049 27.5235 87.2566 27.8791 86.8988 28.1442Z" fill="#163190"/>
<path d="M96.1275 27.0607L98.6732 31.303H102.803L99.2958 26.0779L102.483 21.2979H98.5607L96.1275 25.2263V21.2979H92.6211V31.303H96.1275V27.0607Z" fill="#163190"/>
<path d="M109.873 26.8193V31.303H113.248V21.2979H111.231L107.102 25.7452V21.2979H103.727V31.303H105.782L109.873 26.8193Z" fill="#163190"/>
<path d="M123.128 17.6853H117.717V19.9087H123.128V17.6853Z" fill="#163190"/>
<path d="M121.62 26.8193V31.303H124.995V21.2979H122.977L118.848 25.7452V21.2979H115.474V31.303H117.528L121.62 26.8193Z" fill="#163190"/>
<path d="M153.07 39.9205H147.658V42.1438H153.07V39.9205Z" fill="#163190"/>
<path d="M151.561 49.0544V53.5381H154.937V43.5331H152.918L148.789 47.9803V43.5331H145.415V53.5381H147.469L151.561 49.0544Z" fill="#163190"/>
<path d="M33.4867 34.1334L41.0263 10.733C55.2249 5.13583 57.2883 6.45038 57.4499 6.58516C57.5749 6.8629 58.6155 10.7961 33.4867 34.1334ZM58.0823 6.19022L57.444 6.57312C57.444 6.57312 57.444 6.57313 57.444 6.57343C57.444 6.57313 57.4437 6.57283 57.4437 6.57253L58.0823 6.19022ZM61.1253 4.35828C59.1557 1.20766 53.6144 1.54742 42.7031 5.52986C43.2441 3.6865 43.7851 1.84336 44.326 0C42.8694 0.000595093 41.4125 0.0014267 39.9555 0.00202179L37.53 7.5292C28.3562 11.2477 15.9555 17.1052 0.663325 24.9445L0 25.2843C0.00265331 26.8205 0.0053066 28.3571 0.00795992 29.8933C0.893275 29.4958 1.7783 29.0979 2.66333 28.7C15.8352 21.9484 26.9737 16.6302 35.8069 12.8756C29.6306 31.8548 23.4546 50.8337 17.2783 69.813C18.8287 69.8752 20.3791 69.9378 21.9298 70L30.8355 42.3596C61.1845 14.931 63.3308 7.88475 61.1253 4.35828Z" fill="#163190"/>
</svg>
