<svg width="62" height="70" viewBox="0 0 62 70" fill="none" xmlns="http://www.w3.org/2000/svg">
<path d="M33.4867 34.1334L41.0263 10.733C55.2249 5.13583 57.2883 6.45038 57.4499 6.58516C57.5749 6.8629 58.6155 10.7961 33.4867 34.1334ZM58.0823 6.19022L57.444 6.57312C57.444 6.57312 57.444 6.57313 57.444 6.57343C57.444 6.57313 57.4437 6.57283 57.4437 6.57253L58.0823 6.19022ZM61.1253 4.35828C59.1557 1.20766 53.6144 1.54742 42.7031 5.52986C43.2441 3.6865 43.7851 1.84336 44.326 0C42.8694 0.000595093 41.4125 0.0014267 39.9555 0.00202179L37.53 7.5292C28.3562 11.2477 15.9555 17.1052 0.663325 24.9445L0 25.2843C0.00265331 26.8205 0.0053066 28.3571 0.00795992 29.8933C0.893275 29.4958 1.7783 29.0979 2.66333 28.7C15.8352 21.9484 26.9737 16.6302 35.8069 12.8756C29.6306 31.8548 23.4546 50.8337 17.2783 69.813C18.8287 69.8752 20.3791 69.9378 21.9298 70L30.8355 42.3596C61.1845 14.931 63.3308 7.88475 61.1253 4.35828Z" fill="#163190"/>
</svg>
